# xmcd
#
# Track frame offsets:
#	150
#	11063
#	23446
#	34486
#	43839
#	55464
#	67427
#	76802
#	90940
#	104185
#	115578
#	124721
#
# Disc length: 1810 seconds
#
# Revision: 1
# Processed by: cddbd v1.5.2PL0 Copyright (c) Steve Scherf et al.
# Submitted via: audiograbber 1.83.01
#
DISCID=a007100c
DTITLE=Faron Young's - Greatest Hits
DYEAR=1965
DGENRE=Country
TTITLE0=The Yellow Bandana
TTITLE1=How Much I Must Have Loved You
TTITLE2=My Friend Oh The Right
TTITLE3=Nighmare
TTITLE4=Think About The Good Old Days
TTITLE5=Walk Tall (Walk Straight)
TTITLE6=You'll Drive Me Back Into Her Arms Again
TTITLE7=Old Courthouse
TTITLE8=I Mess You Already (And You're Not Even Gone)
TTITLE9=Nothing Left To Lose
TTITLE10=Rhinestones
TTITLE11=Live Fast, Love Hard, Die Young
EXTD=
EXTT0=
EXTT1=
EXTT2=
EXTT3=
EXTT4=
EXTT5=
EXTT6=
EXTT7=
EXTT8=
EXTT9=
EXTT10=
EXTT11=
PLAYORDER=
